<svg xmlns="http://www.w3.org/2000/svg" version="1.1" xmlns:xlink="http://www.w3.org/1999/xlink" width="512" height="512" x="0" y="0" viewBox="0 0 512 512" style="enable-background:new 0 0 512 512" xml:space="preserve" class=""><g><linearGradient id="a" x1="9.434" x2="502.569" y1="9.432" y2="502.568" gradientUnits="userSpaceOnUse"><stop stop-opacity="1" stop-color="#8455ff" offset="0"></stop><stop stop-opacity="1" stop-color="#f458f3" offset="0.6583011583011583"></stop></linearGradient><path fill="url(#a)" d="M479.8 512a31.988 31.988 0 0 1-22.769-9.432L266.738 312.28a15.184 15.184 0 0 0-21.475 0L54.975 502.568a32.2 32.2 0 0 1-45.543-45.542L199.72 266.737a15.183 15.183 0 0 0 0-21.474L9.432 54.975A32.2 32.2 0 1 1 54.974 9.432L245.263 199.72a15.184 15.184 0 0 0 21.476 0L457.026 9.432a32.2 32.2 0 0 1 45.543 45.543L312.28 245.263a15.185 15.185 0 0 0 0 21.474l190.289 190.288A32.2 32.2 0 0 1 479.8 512z" opacity="1" data-original="url(#a)" class=""></path></g></svg>